# xmcd
# 
# Track frame offsets:
#   150
#   20182
#   33840
#   50327
#   67955
#   85367
#   101592
#   119262
#   133667
#   152340
#   168160
#   183697
#   201380
#   218195
# 
# Disc length: 3108 seconds
# 
# Revision: 2
# Processed by: cddbd v1.5.1PL2 Copyright (c) Steve Scherf et al.
# Submitted via: Synapstar 1.0 
# 
DISCID=c10c220e
DTITLE=Various Artist - SD072
DYEAR=1900
DGENRE=Country
TTITLE0=George Strait and Alan Jackson - Murder On Music Row
TTITLE1=Brooks and Dunn - You'll Always Be Loved By Me
TTITLE2=Mark Willis - Almost Doesn't Count
TTITLE3=Steve Wariner - Faith In You
TTITLE4=SheDaisy - I Will, But
TTITLE5=Tracy Byrd - Love You Haven't Seen The Last Of Me
TTITLE6=Judds, The - Stuck In Love
TTITLE7=Eric Heatherly - Flowers On The Wall
TTITLE8=Lee Ann Womack - I Hope You Dance
TTITLE9=Gary Allan - Lovin' You Against My Will
TTITLE10=Kinleys, The - She Ain't The Girl For You
TTITLE11=Rascal Flatts - Prayin' For Daylight
TTITLE12=Neal McCoy - Forever Works For Me
TTITLE13=John Michael Montgomery - You Are
EXTD=MediaType: Karaoke CD+G Producer: StarDisc
EXTT0=
EXTT1=
EXTT2=
EXTT3=
EXTT4=
EXTT5=
EXTT6=
EXTT7=
EXTT8=
EXTT9=
EXTT10=
EXTT11=
EXTT12=
EXTT13=
PLAYORDER=
